# xmcd
#
# Track frame offsets: 
#        150
#        20655
#        41780
#        58235
#        80740
#        102045
#        120437
#        138827
#        157272
#        175885
#        194492
#        213815
#
# Disc length: 3118 seconds
#
# Revision: 2
# Processed by: cddbd v1.5.2PL0 Copyright (c) Steve Scherf et al.
# Submitted via: ExactAudioCopy v1.1
#
DISCID=a90c2c0c
DTITLE=NOBODY - NOBODY LIVE 2
DYEAR=1988
DGENRE=Rock
TTITLE0=MOON LIGHT DANCER
TTITLE1=DARLIN' DARLIN'
TTITLE2=RESTLESS HEART
TTITLE3=BLUE IN PARADISE
TTITLE4=JOHNNY BE BAD
TTITLE5=DEEP IN LOVE
TTITLE6=DON'T SURRENDER
TTITLE7=I NEED YOUR LOVE
TTITLE8=PLEASURE SYNDROME
TTITLE9=ONE-WAY HEART
TTITLE10=DON'T YOU GO
TTITLE11=BYE BYE BYE
EXTD=YEAR: 1988
EXTT0=
EXTT1=
EXTT2=
EXTT3=
EXTT4=
EXTT5=
EXTT6=
EXTT7=
EXTT8=
EXTT9=
EXTT10=
EXTT11=
PLAYORDER=
